<svg width="21" height="19" viewBox="0 0 21 19" fill="none" xmlns="http://www.w3.org/2000/svg">
<path d="M10.6094 18.4521L9.15938 17.1521C7.47604 15.6354 6.08437 14.3271 4.98438 13.2271C3.88438 12.1271 3.00938 11.1394 2.35938 10.2641C1.70938 9.38939 1.25538 8.58538 0.997375 7.85205C0.739375 7.11872 0.610042 6.36872 0.609375 5.60205C0.609375 4.03538 1.13438 2.72705 2.18438 1.67705C3.23438 0.627051 4.54271 0.102051 6.10938 0.102051C6.97604 0.102051 7.80104 0.285384 8.58438 0.652051C9.36771 1.01872 10.0427 1.53538 10.6094 2.20205C11.176 1.53538 11.851 1.01872 12.6344 0.652051C13.4177 0.285384 14.2427 0.102051 15.1094 0.102051C16.676 0.102051 17.9844 0.627051 19.0344 1.67705C20.0844 2.72705 20.6094 4.03538 20.6094 5.60205C20.6094 6.36872 20.48 7.11872 20.2214 7.85205C19.9627 8.58538 19.5087 9.38939 18.8594 10.2641C18.2094 11.1394 17.3344 12.1271 16.2344 13.2271C15.1344 14.3271 13.7427 15.6354 12.0594 17.1521L10.6094 18.4521ZM10.6094 15.7521C12.2094 14.3187 13.526 13.0894 14.5594 12.0641C15.5927 11.0387 16.4094 10.1474 17.0094 9.39005C17.6094 8.63138 18.026 7.95605 18.2594 7.36405C18.4927 6.77205 18.6094 6.18472 18.6094 5.60205C18.6094 4.60205 18.276 3.76872 17.6094 3.10205C16.9427 2.43538 16.1094 2.10205 15.1094 2.10205C14.326 2.10205 13.601 2.32272 12.9344 2.76405C12.2677 3.20538 11.8094 3.76805 11.5594 4.45205H9.65938C9.40938 3.76872 8.95104 3.20605 8.28438 2.76405C7.61771 2.32205 6.89271 2.10138 6.10938 2.10205C5.10938 2.10205 4.27604 2.43538 3.60938 3.10205C2.94271 3.76872 2.60938 4.60205 2.60938 5.60205C2.60938 6.18538 2.72604 6.77305 2.95937 7.36505C3.19271 7.95705 3.60938 8.63205 4.20937 9.39005C4.80937 10.1481 5.62604 11.0397 6.65938 12.0651C7.69271 13.0904 9.00937 14.3194 10.6094 15.7521Z" fill="#F4C444"/>
</svg>
